<svg width="316" height="46" viewBox="0 0 316 46" fill="none" xmlns="http://www.w3.org/2000/svg">
<rect x="0.5" y="0.5" width="315" height="45" rx="7.5" fill="white"/>
<rect x="0.5" y="0.5" width="315" height="45" rx="7.5" stroke="#E0E0E0"/>
<path d="M23 30C27.4183 30 31 26.4183 31 22C31 17.5817 27.4183 14 23 14C18.5817 14 15 17.5817 15 22C15 26.4183 18.5817 30 23 30Z" stroke="#DADADA" stroke-width="2" stroke-linecap="round" stroke-linejoin="round"/>
<path d="M33 32L28.65 27.65" stroke="#DADADA" stroke-width="2" stroke-linecap="round" stroke-linejoin="round"/>
<path d="M55.7727 20.2727C55.7045 19.697 55.428 19.25 54.9432 18.9318C54.4583 18.6136 53.8636 18.4545 53.1591 18.4545C52.6439 18.4545 52.1932 18.5379 51.8068 18.7045C51.4242 18.8712 51.125 19.1004 50.9091 19.392C50.697 19.6837 50.5909 20.0152 50.5909 20.3864C50.5909 20.697 50.6648 20.964 50.8125 21.1875C50.964 21.4072 51.1572 21.5909 51.392 21.7386C51.6269 21.8826 51.8731 22.0019 52.1307 22.0966C52.3883 22.1875 52.625 22.2614 52.8409 22.3182L54.0227 22.6364C54.3258 22.7159 54.6629 22.8258 55.0341 22.9659C55.4091 23.1061 55.767 23.2973 56.108 23.5398C56.4527 23.7784 56.7367 24.0852 56.9602 24.4602C57.1837 24.8352 57.2955 25.2955 57.2955 25.8409C57.2955 26.4697 57.1307 27.0379 56.8011 27.5455C56.4754 28.053 55.9981 28.4564 55.3693 28.7557C54.7443 29.0549 53.9848 29.2045 53.0909 29.2045C52.2576 29.2045 51.536 29.0701 50.9261 28.8011C50.3201 28.5322 49.8428 28.1572 49.4943 27.6761C49.1496 27.1951 48.9545 26.6364 48.9091 26H50.3636C50.4015 26.4394 50.5492 26.803 50.8068 27.0909C51.0682 27.375 51.3977 27.5871 51.7955 27.7273C52.197 27.8636 52.6288 27.9318 53.0909 27.9318C53.6288 27.9318 54.1117 27.8447 54.5398 27.6705C54.9678 27.4924 55.3068 27.2462 55.5568 26.9318C55.8068 26.6136 55.9318 26.2424 55.9318 25.8182C55.9318 25.4318 55.8239 25.1174 55.608 24.875C55.392 24.6326 55.108 24.4356 54.7557 24.2841C54.4034 24.1326 54.0227 24 53.6136 23.8864L52.1818 23.4773C51.2727 23.2159 50.553 22.8428 50.0227 22.358C49.4924 21.8731 49.2273 21.2386 49.2273 20.4545C49.2273 19.803 49.4034 19.2348 49.7557 18.75C50.1117 18.2614 50.589 17.8826 51.1875 17.6136C51.7898 17.3409 52.4621 17.2045 53.2045 17.2045C53.9545 17.2045 54.6212 17.339 55.2045 17.608C55.7879 17.8731 56.25 18.2367 56.5909 18.6989C56.9356 19.161 57.1174 19.6856 57.1364 20.2727H55.7727ZM63.0895 29.1818C62.2486 29.1818 61.5232 28.9962 60.9134 28.625C60.3073 28.25 59.8395 27.7273 59.5099 27.0568C59.1842 26.3826 59.0213 25.5985 59.0213 24.7045C59.0213 23.8106 59.1842 23.0227 59.5099 22.3409C59.8395 21.6553 60.2978 21.1212 60.8849 20.7386C61.4759 20.3523 62.1652 20.1591 62.9531 20.1591C63.4077 20.1591 63.8565 20.2348 64.2997 20.3864C64.7429 20.5379 65.1463 20.7841 65.5099 21.125C65.8736 21.4621 66.1634 21.9091 66.3793 22.4659C66.5952 23.0227 66.7031 23.7083 66.7031 24.5227V25.0909H59.9759V23.9318H65.3395C65.3395 23.4394 65.241 23 65.044 22.6136C64.8509 22.2273 64.5743 21.9223 64.2145 21.6989C63.8584 21.4754 63.438 21.3636 62.9531 21.3636C62.419 21.3636 61.9569 21.4962 61.5668 21.7614C61.1804 22.0227 60.883 22.3636 60.6747 22.7841C60.4664 23.2045 60.3622 23.6553 60.3622 24.1364V24.9091C60.3622 25.5682 60.4759 26.1269 60.7031 26.5852C60.9342 27.0398 61.2543 27.3864 61.6634 27.625C62.0724 27.8598 62.5478 27.9773 63.0895 27.9773C63.4418 27.9773 63.7599 27.928 64.044 27.8295C64.3319 27.7273 64.58 27.5758 64.7884 27.375C64.9967 27.1705 65.1577 26.9167 65.2713 26.6136L66.5668 26.9773C66.4304 27.4167 66.2012 27.803 65.8793 28.1364C65.5573 28.4659 65.1596 28.7235 64.6861 28.9091C64.2126 29.0909 63.6804 29.1818 63.0895 29.1818ZM71.3111 29.2045C70.758 29.2045 70.2562 29.1004 69.8054 28.892C69.3546 28.6799 68.9967 28.375 68.7315 27.9773C68.4664 27.5758 68.3338 27.0909 68.3338 26.5227C68.3338 26.0227 68.4323 25.6174 68.6293 25.3068C68.8262 24.9924 69.0895 24.7462 69.419 24.5682C69.7486 24.3902 70.1122 24.2576 70.5099 24.1705C70.9115 24.0795 71.3149 24.0076 71.7202 23.9545C72.2505 23.8864 72.6804 23.8352 73.0099 23.8011C73.3433 23.7633 73.5857 23.7008 73.7372 23.6136C73.8925 23.5265 73.9702 23.375 73.9702 23.1591V23.1136C73.9702 22.553 73.8168 22.1174 73.5099 21.8068C73.2069 21.4962 72.7467 21.3409 72.1293 21.3409C71.4891 21.3409 70.9872 21.4811 70.6236 21.7614C70.2599 22.0417 70.0043 22.3409 69.8565 22.6591L68.5838 22.2045C68.8111 21.6742 69.1141 21.2614 69.4929 20.9659C69.8755 20.6667 70.2921 20.4583 70.7429 20.3409C71.1974 20.2197 71.6444 20.1591 72.0838 20.1591C72.3641 20.1591 72.6861 20.1932 73.0497 20.2614C73.4171 20.3258 73.7713 20.4602 74.1122 20.6648C74.4569 20.8693 74.7429 21.178 74.9702 21.5909C75.1974 22.0038 75.3111 22.5568 75.3111 23.25V29H73.9702V27.8182H73.902C73.8111 28.0076 73.6596 28.2102 73.4474 28.4261C73.2353 28.642 72.9531 28.8258 72.6009 28.9773C72.2486 29.1288 71.8187 29.2045 71.3111 29.2045ZM71.5156 28C72.0459 28 72.4929 27.8958 72.8565 27.6875C73.224 27.4792 73.5005 27.2102 73.6861 26.8807C73.8755 26.5511 73.9702 26.2045 73.9702 25.8409V24.6136C73.9134 24.6818 73.7884 24.7443 73.5952 24.8011C73.4058 24.8542 73.1861 24.9015 72.9361 24.9432C72.6899 24.9811 72.4493 25.0152 72.2145 25.0455C71.9834 25.072 71.7959 25.0947 71.652 25.1136C71.3035 25.1591 70.9777 25.233 70.6747 25.3352C70.3755 25.4337 70.133 25.5833 69.9474 25.7841C69.7656 25.9811 69.6747 26.25 69.6747 26.5909C69.6747 27.0568 69.8471 27.4091 70.1918 27.6477C70.5402 27.8826 70.9815 28 71.5156 28ZM77.7585 29V20.2727H79.054V21.5909H79.1449C79.304 21.1591 79.5919 20.8087 80.0085 20.5398C80.4252 20.2708 80.8949 20.1364 81.4176 20.1364C81.5161 20.1364 81.6392 20.1383 81.7869 20.142C81.9347 20.1458 82.0464 20.1515 82.1222 20.1591V21.5227C82.0767 21.5114 81.9725 21.4943 81.8097 21.4716C81.6506 21.4451 81.482 21.4318 81.304 21.4318C80.8797 21.4318 80.5009 21.5208 80.1676 21.6989C79.8381 21.8731 79.5767 22.1155 79.3835 22.4261C79.1941 22.733 79.0994 23.0833 79.0994 23.4773V29H77.7585ZM86.9915 29.1818C86.1733 29.1818 85.4688 28.9886 84.8778 28.6023C84.2869 28.2159 83.8324 27.6837 83.5142 27.0057C83.196 26.3277 83.0369 25.553 83.0369 24.6818C83.0369 23.7955 83.1998 23.0133 83.5256 22.3352C83.8551 21.6534 84.3134 21.1212 84.9006 20.7386C85.4915 20.3523 86.1809 20.1591 86.9688 20.1591C87.5824 20.1591 88.1354 20.2727 88.6278 20.5C89.1203 20.7273 89.5237 21.0455 89.8381 21.4545C90.1525 21.8636 90.3475 22.3409 90.4233 22.8864H89.0824C88.9801 22.4886 88.7528 22.1364 88.4006 21.8295C88.0521 21.5189 87.5824 21.3636 86.9915 21.3636C86.4688 21.3636 86.0104 21.5 85.6165 21.7727C85.2263 22.0417 84.9214 22.4223 84.7017 22.9148C84.4858 23.4034 84.3778 23.9773 84.3778 24.6364C84.3778 25.3106 84.4839 25.8977 84.696 26.3977C84.9119 26.8977 85.215 27.286 85.6051 27.5625C85.9991 27.839 86.4612 27.9773 86.9915 27.9773C87.34 27.9773 87.6562 27.9167 87.9403 27.7955C88.2244 27.6742 88.465 27.5 88.6619 27.2727C88.8589 27.0455 88.9991 26.7727 89.0824 26.4545H90.4233C90.3475 26.9697 90.16 27.4337 89.8608 27.8466C89.5653 28.2557 89.1733 28.5814 88.6847 28.8239C88.1998 29.0625 87.6354 29.1818 86.9915 29.1818ZM93.7244 23.75V29H92.3835V17.3636H93.7244V21.6364H93.8381C94.0426 21.1856 94.3494 20.8277 94.7585 20.5625C95.1714 20.2936 95.7206 20.1591 96.4062 20.1591C97.0009 20.1591 97.5218 20.2784 97.9688 20.517C98.4157 20.7519 98.7623 21.1136 99.0085 21.6023C99.2585 22.0871 99.3835 22.7045 99.3835 23.4545V29H98.0426V23.5455C98.0426 22.8523 97.8627 22.3163 97.5028 21.9375C97.1468 21.5549 96.6525 21.3636 96.0199 21.3636C95.5805 21.3636 95.1866 21.4564 94.8381 21.642C94.4934 21.8277 94.2206 22.0985 94.0199 22.4545C93.8229 22.8106 93.7244 23.2424 93.7244 23.75Z" fill="#DADADA"/>
</svg>
