<svg width="46" height="46" viewBox="0 0 46 46" fill="none" xmlns="http://www.w3.org/2000/svg">
<path fill-rule="evenodd" clip-rule="evenodd" d="M0.5 23.0001C0.5 10.5737 10.5736 0.5 23.0001 0.5C35.4264 0.5 45.5 10.5737 45.5 23.0001C45.5 35.4266 35.4264 45.5002 23.0001 45.5002C10.5736 45.5002 0.5 35.4266 0.5 23.0001ZM23.0001 3.85409C12.426 3.85409 3.85409 12.4261 3.85409 23.0001C3.85409 27.8919 5.68864 32.3553 8.70732 35.7394C11.8918 31.2891 17.1064 28.3847 23.0013 28.3847C28.8955 28.3847 34.1095 31.2885 37.2941 35.738C40.3121 32.3539 42.1459 27.8911 42.1459 23.0001C42.1459 12.4261 33.5739 3.85409 23.0001 3.85409ZM34.823 38.0604C32.2725 34.2459 27.9286 31.7388 23.0013 31.7388C18.0734 31.7388 13.7292 34.2466 11.1786 38.0618C14.4338 40.6201 18.5387 42.1461 23.0001 42.1461C27.4621 42.1461 31.5678 40.6198 34.823 38.0604ZM14.7035 19.4871C14.7035 14.9048 18.4182 11.1902 23.0005 11.1902C27.5828 11.1902 31.2974 14.9048 31.2974 19.4871C31.2974 24.0694 27.5828 27.7841 23.0005 27.7841C18.4182 27.7841 14.7035 24.0694 14.7035 19.4871ZM23.0005 14.5443C20.2706 14.5443 18.0576 16.7573 18.0576 19.4871C18.0576 22.217 20.2706 24.43 23.0005 24.43C25.7303 24.43 27.9433 22.217 27.9433 19.4871C27.9433 16.7573 25.7303 14.5443 23.0005 14.5443Z" fill="#454545"/>
</svg>
